<mxfile host="app.diagrams.net" modified="2023-09-04T19:48:58.232Z" agent="Mozilla/5.0 (Windows NT 10.0; Win64; x64; rv:107.0) Gecko/20100101 Firefox/107.0" version="21.7.1" etag="R_OiZbjwOg9LZYXf8phb" type="github">
  <diagram name="PÃ¡gina-1" id="r8btl06dpMkSg_a-J9Kt">
    <mxGraphModel>
      <root>
        <mxCell id="0" />
        <mxCell id="1" parent="0" />
      </root>
    </mxGraphModel>
  </diagram>
</mxfile>
